<?xml version="1.0" encoding="UTF-8"?>
<svg id="Camada_2" data-name="Camada 2" xmlns="http://www.w3.org/2000/svg" viewBox="0 0 323.28 323.28">
  <defs>
    <style>
      .cls-1 {
        fill: #f2f2f2;
      }
    </style>
  </defs>
  <g id="Camada_1-2" data-name="Camada 1">
    <g>
      <path class="cls-1" d="m161.64,323.28C72.51,323.28,0,250.77,0,161.64S72.51,0,161.64,0s161.64,72.51,161.64,161.64-72.51,161.64-161.64,161.64Zm0-320.91C73.82,2.37,2.37,73.82,2.37,161.64s71.45,159.27,159.27,159.27,159.27-71.45,159.27-159.27S249.46,2.37,161.64,2.37Z"/>
      <path class="cls-1" d="m161.64,272.95c-61.38,0-111.31-49.93-111.31-111.31s49.93-111.31,111.31-111.31,111.31,49.93,111.31,111.31-49.93,111.31-111.31,111.31Zm0-220.99c-60.48,0-109.68,49.2-109.68,109.68s49.2,109.68,109.68,109.68,109.68-49.2,109.68-109.68-49.2-109.68-109.68-109.68Z"/>
      <path class="cls-1" d="m161.64,221.98c-33.27,0-60.34-27.07-60.34-60.34s27.07-60.34,60.34-60.34,60.34,27.07,60.34,60.34-27.07,60.34-60.34,60.34Zm0-119.8c-32.79,0-59.46,26.67-59.46,59.46s26.67,59.46,59.46,59.46,59.46-26.67,59.46-59.46-26.67-59.46-59.46-59.46Z"/>
      <circle class="cls-1" cx="102.2" cy="65.13" r="29.17"/>
      <circle class="cls-1" cx="157.9" cy="221.48" r="14.59"/>
    </g>
  </g>
</svg>