<?xml version="1.0" encoding="UTF-8"?>
<svg id="Camada_2" data-name="Camada 2" xmlns="http://www.w3.org/2000/svg" viewBox="0 0 397.89 364.85">
  <defs>
    <style>
      .cls-1 {
        fill: #f2f2f2;
      }
    </style>
  </defs>
  <g id="Camada_1-2" data-name="Camada 1">
    <g>
      <path class="cls-1" d="m3.25,330.09c-2.08-2.08-3.25-4.31-3.25-6.71,0-12.51,32-20.69,58.85-25.35,37.43-6.5,87.18-10.07,140.1-10.08,52.91,0,102.67,3.58,140.1,10.07,26.85,4.66,58.85,12.84,58.85,25.35h0c0,12.51-32,20.69-58.85,25.35-37.43,6.5-87.18,10.08-140.1,10.08-52.91,0-102.67-3.58-140.1-10.08-21.71-3.77-46.79-9.84-55.6-18.64Zm389.93-11.77c-14.41-14.41-88.83-28.21-194.24-28.21-52.79,0-102.41,3.57-139.73,10.04-36.26,6.29-57.06,14.76-57.06,23.22,0,16.07,79.08,33.26,196.79,33.27,117.71,0,196.79-17.2,196.79-33.27,0-1.68-.87-3.38-2.55-5.06Z"/>
      <path class="cls-1" d="m3.25,234.1c-2.08-2.08-3.25-4.31-3.25-6.71,0-12.51,32-20.69,58.85-25.35,37.43-6.5,87.18-10.07,140.1-10.08,52.91,0,102.67,3.58,140.1,10.07,26.85,4.66,58.85,12.84,58.85,25.35h0c0,12.51-32,20.69-58.85,25.35-37.43,6.5-87.18,10.08-140.1,10.08-52.91,0-102.67-3.58-140.1-10.08-21.71-3.77-46.79-9.84-55.6-18.64Zm389.93-11.77c-14.41-14.41-88.83-28.21-194.24-28.21-52.79,0-102.41,3.57-139.73,10.04-36.26,6.29-57.06,14.76-57.06,23.22,0,16.07,79.08,33.26,196.79,33.27,117.71,0,196.79-17.2,196.79-33.27,0-1.68-.87-3.38-2.55-5.06Z"/>
      <path class="cls-1" d="m3.25,138.12c-2.08-2.08-3.25-4.31-3.25-6.71,0-12.51,32-20.69,58.85-25.35,37.43-6.5,87.18-10.07,140.1-10.08,52.91,0,102.67,3.58,140.1,10.07,26.85,4.66,58.85,12.84,58.85,25.35h0c0,12.51-32,20.69-58.85,25.35-37.43,6.5-87.18,10.08-140.1,10.08-52.91,0-102.67-3.58-140.1-10.08-21.71-3.77-46.79-9.84-55.6-18.64Zm389.93-11.77c-14.41-14.41-88.83-28.21-194.24-28.21-52.79,0-102.41,3.57-139.73,10.04-36.26,6.29-57.06,14.76-57.06,23.22,0,16.07,79.08,33.26,196.79,33.27,117.71,0,196.79-17.2,196.79-33.27,0-1.68-.87-3.38-2.55-5.06Z"/>
      <path class="cls-1" d="m3.25,42.13c-2.08-2.08-3.25-4.31-3.25-6.71C0,22.91,32,14.73,58.85,10.08,96.28,3.58,146.03,0,198.94,0s102.67,3.58,140.1,10.07c26.85,4.66,58.85,12.84,58.85,25.35h0c0,12.51-32,20.69-58.85,25.35-37.43,6.5-87.18,10.08-140.1,10.08-52.91,0-102.67-3.58-140.1-10.08-21.71-3.77-46.79-9.84-55.6-18.64Zm389.93-11.77c-14.41-14.41-88.83-28.21-194.24-28.21-52.79,0-102.41,3.57-139.73,10.04C22.95,18.49,2.16,26.96,2.16,35.42c0,16.07,79.08,33.26,196.79,33.27,117.71,0,196.79-17.2,196.79-33.27,0-1.68-.87-3.38-2.55-5.06Z"/>
      <circle class="cls-1" cx="58.51" cy="57.15" r="13.27"/>
      <circle class="cls-1" cx="80.08" cy="351.58" r="13.27"/>
      <circle class="cls-1" cx="308.72" cy="200.69" r="26.55"/>
    </g>
  </g>
</svg>