<?xml version="1.0" encoding="UTF-8"?>
<svg id="Camada_2" data-name="Camada 2" xmlns="http://www.w3.org/2000/svg" viewBox="0 0 343.89 353.7">
  <defs>
    <style>
      .cls-1 {
        fill: #0b1424;
      }
    </style>
  </defs>
  <g id="Camada_1-2" data-name="Camada 1">
    <g>
      <path class="cls-1" d="m39.74,339.08c-3.24,0-5.88-.83-7.74-2.69-9.72-9.72,8.79-40.94,26.03-65.43,24.04-34.14,59.92-75.58,101.04-116.7,41.12-41.12,82.56-77,116.7-101.04,24.48-17.24,55.71-35.75,65.43-26.03h0c9.72,9.72-8.79,40.95-26.03,65.43-24.04,34.14-59.92,75.58-101.04,116.7-41.12,41.12-82.56,77-116.7,101.04-19.8,13.94-44.01,28.72-57.69,28.72ZM333.62,26.92c-22.4,0-90.95,47.11-172.86,129.02-41.02,41.02-76.81,82.36-100.78,116.39-23.29,33.07-32.87,55.81-26.29,62.39,12.48,12.49,87.3-35.6,178.77-127.07,91.47-91.48,139.56-166.29,127.07-178.78-1.31-1.31-3.3-1.95-5.91-1.95Z"/>
      <circle class="cls-1" cx="154.35" cy="262.56" r="14.59"/>
      <path class="cls-1" d="m161.64,353.7C72.51,353.7,0,281.19,0,192.06S72.51,30.42,161.64,30.42s161.64,72.51,161.64,161.64-72.51,161.64-161.64,161.64Zm0-320.91C73.82,32.79,2.37,104.24,2.37,192.06s71.45,159.27,159.27,159.27,159.27-71.45,159.27-159.27S249.46,32.79,161.64,32.79Z"/>
      <circle class="cls-1" cx="154.35" cy="29.17" r="29.17"/>
    </g>
  </g>
</svg>