<?xml version="1.0" encoding="UTF-8"?>
<svg id="Camada_2" data-name="Camada 2" xmlns="http://www.w3.org/2000/svg" viewBox="0 0 519.6 77.53">
  <defs>
    <style>
      .cls-1 {
        fill: #0ca88e;
      }

      .cls-2 {
        fill: #f2f2f2;
      }
    </style>
  </defs>
  <g id="Camada_1-2" data-name="Camada 1">
    <g>
      <g>
        <path class="cls-1" d="m75.68,38.17c0,21.09-16.94,38.18-37.84,38.18-16.26,0-30.12-10.34-35.48-24.87-.77-2.1.79-4.34,3.03-4.34h0c1.33,0,2.53.81,2.99,2.06,4.46,11.93,15.97,20.42,29.46,20.42,14.25,0,26.29-9.48,30.15-22.48.57-1.91.96-3.9,1.15-5.94.09-1,.14-2.01.14-3.03s-.04-1.96-.13-2.91c-1.48-16.01-14.93-28.53-31.32-28.53S8,19.26,6.53,35.26h48.63c.16.95.25,1.92.25,2.91s-.09,2.05-.27,3.03H.12c-.03-.41-.06-.83-.08-1.24-.03-.6-.04-1.19-.04-1.8,0-.3,0-.6.01-.9.02-.67.05-1.35.1-2.01C1.59,15.54,17.91,0,37.84,0s37.84,17.09,37.84,38.17Z"/>
        <path class="cls-1" d="m55.41,38.17c0,1.04-.09,2.05-.27,3.03-1.43,8.25-8.64,14.53-17.29,14.53s-15.87-6.28-17.29-14.53c-.18-.98-.27-2-.27-3.03s.08-1.96.25-2.91c1.38-8.31,8.61-14.65,17.32-14.65s15.94,6.34,17.32,14.65c.16.95.25,1.92.25,2.91Z"/>
      </g>
      <g>
        <path class="cls-2" d="m105.82,62.52c-1.04,0-2.22-.1-3.56-.29-1.34-.19-2.62-.64-3.85-1.33s-2.24-1.74-3.04-3.14c-.8-1.4-1.2-3.33-1.2-5.79v-26.73c0-2.11.32-3.88.97-5.31s1.51-2.54,2.59-3.37c1.08-.82,2.26-1.4,3.56-1.75,1.29-.34,2.57-.52,3.82-.52,3.24,0,6.09.04,8.58.13,2.48.09,4.71.18,6.7.29,1.98.11,3.8.25,5.44.42v8.02h-17.86c-1.34,0-2.37.32-3.11.97-.73.65-1.1,1.64-1.1,2.98v6.92l18.96.52v7.57l-18.96.52v6.6c0,1.12.18,2,.55,2.62.37.63.86,1.06,1.49,1.29.62.24,1.28.36,1.97.36h18.06v8.02c-1.9.22-4,.39-6.31.52-2.31.13-4.64.24-6.99.32-2.35.09-4.58.13-6.7.13Z"/>
        <path class="cls-2" d="m143.74,62.58c-2.72,0-5-.57-6.86-1.71-1.86-1.14-3.25-3-4.17-5.57-.93-2.57-1.39-5.94-1.39-10.13s.4-7.81,1.2-10.48c.8-2.67,2.15-4.64,4.04-5.89,1.9-1.25,4.51-1.88,7.83-1.88,1.6,0,3.17.16,4.72.49,1.55.32,2.93.7,4.14,1.13v-15.73h9.64v49.38h-8.09l-1.55-3.3c-.73.69-1.63,1.32-2.69,1.88-1.06.56-2.17,1-3.33,1.33-1.17.32-2.33.49-3.5.49Zm3.37-7.7c1.29,0,2.47-.22,3.53-.65,1.06-.43,1.93-.86,2.62-1.29v-17.47c-.86-.3-1.77-.6-2.72-.91-.95-.3-1.96-.45-3.04-.45-1.6,0-2.88.28-3.85.84-.97.56-1.67,1.61-2.1,3.14-.43,1.53-.65,3.74-.65,6.63,0,2.67.2,4.76.61,6.25.41,1.49,1.07,2.51,1.97,3.07.91.56,2.11.84,3.62.84Z"/>
        <path class="cls-2" d="m179.91,62.58c-3.11,0-5.54-.92-7.31-2.75-1.77-1.83-2.65-4.43-2.65-7.8v-24.59h9.58v21.74c0,1.94.46,3.25,1.39,3.92.93.67,2.15,1,3.66,1,1.21,0,2.45-.23,3.72-.68,1.27-.45,2.4-1.07,3.4-1.84v-24.14h9.64v34.75h-7.96l-1.68-3.56c-1.55,1.04-3.34,1.95-5.37,2.75-2.03.8-4.16,1.2-6.41,1.2Z"/>
        <path class="cls-2" d="m215.96,62.58c-2.63,0-4.77-.78-6.41-2.33s-2.46-3.71-2.46-6.47v-3.11c0-2.63.93-4.8,2.78-6.5,1.85-1.7,4.75-2.56,8.67-2.56h8.87v-2.39c0-1.08-.19-1.97-.58-2.69-.39-.71-1.11-1.23-2.17-1.55-1.06-.32-2.67-.49-4.82-.49h-10.42v-5.57c1.68-.52,3.63-.97,5.86-1.36,2.22-.39,4.91-.58,8.06-.58,2.89,0,5.36.35,7.41,1.04,2.05.69,3.6,1.88,4.66,3.56,1.06,1.68,1.59,4.01,1.59,6.99v23.62h-7.57l-1.55-3.69c-.3.35-.82.73-1.55,1.17-.73.43-1.63.87-2.69,1.33-1.06.45-2.24.83-3.56,1.13-1.32.3-2.69.45-4.11.45Zm4.85-6.67c.43,0,.92-.05,1.46-.16.54-.11,1.1-.24,1.68-.39s1.12-.3,1.62-.45c.5-.15.91-.29,1.23-.42.32-.13.53-.21.61-.26v-8.09l-5.82.39c-1.68.13-2.92.56-3.72,1.29-.8.73-1.2,1.73-1.2,2.98v1.42c0,.86.18,1.58.55,2.14.37.56.86.96,1.49,1.2.62.24,1.33.36,2.1.36Z"/>
        <path class="cls-2" d="m244.17,62.19V27.44h7.38l2.2,5.31c1.25-1.6,2.66-2.95,4.24-4.08,1.58-1.12,3.44-1.68,5.6-1.68.47,0,.96.02,1.46.06.5.04.96.13,1.39.26v9.84c-.65-.09-1.33-.16-2.04-.23-.71-.06-1.39-.1-2.04-.1-1.25,0-2.38.14-3.4.42-1.01.28-1.94.69-2.78,1.23-.84.54-1.65,1.24-2.43,2.1v21.62h-9.58Z"/>
        <path class="cls-2" d="m282.94,62.58c-2.72,0-5-.57-6.86-1.71-1.86-1.14-3.25-3-4.17-5.57-.93-2.57-1.39-5.94-1.39-10.13s.4-7.81,1.2-10.48c.8-2.67,2.15-4.64,4.04-5.89,1.9-1.25,4.51-1.88,7.83-1.88,1.6,0,3.17.16,4.72.49,1.55.32,2.93.7,4.14,1.13v-15.73h9.64v49.38h-8.09l-1.55-3.3c-.73.69-1.63,1.32-2.69,1.88-1.06.56-2.17,1-3.33,1.33-1.17.32-2.33.49-3.5.49Zm3.37-7.7c1.29,0,2.47-.22,3.53-.65,1.06-.43,1.93-.86,2.62-1.29v-17.47c-.86-.3-1.77-.6-2.72-.91-.95-.3-1.96-.45-3.04-.45-1.6,0-2.88.28-3.85.84-.97.56-1.67,1.61-2.1,3.14-.43,1.53-.65,3.74-.65,6.63,0,2.67.2,4.76.61,6.25.41,1.49,1.07,2.51,1.97,3.07.91.56,2.11.84,3.62.84Z"/>
        <path class="cls-2" d="m324.16,62.52c-2.85,0-5.29-.29-7.31-.87-2.03-.58-3.68-1.56-4.95-2.94s-2.2-3.21-2.78-5.5c-.58-2.29-.87-5.11-.87-8.48,0-3.54.29-6.46.87-8.77.58-2.31,1.51-4.12,2.78-5.44,1.27-1.32,2.93-2.24,4.98-2.78,2.05-.54,4.48-.81,7.28-.81s5.35.28,7.38.84c2.03.56,3.68,1.5,4.95,2.82,1.27,1.32,2.2,3.13,2.78,5.44.58,2.31.87,5.21.87,8.7s-.28,6.33-.84,8.64c-.56,2.31-1.47,4.13-2.72,5.47-1.25,1.34-2.9,2.29-4.95,2.85-2.05.56-4.54.84-7.47.84Zm0-7.64c1.17,0,2.15-.11,2.94-.32.8-.21,1.45-.66,1.94-1.33s.87-1.69,1.13-3.07c.26-1.38.39-3.19.39-5.44s-.13-4.11-.39-5.47-.64-2.37-1.13-3.04c-.5-.67-1.14-1.11-1.94-1.33-.8-.22-1.78-.32-2.94-.32s-2.08.11-2.88.32c-.8.22-1.46.66-1.97,1.33-.52.67-.9,1.68-1.13,3.04-.24,1.36-.36,3.18-.36,5.47s.12,4.06.36,5.44c.24,1.38.62,2.41,1.13,3.07s1.17,1.11,1.97,1.33c.8.22,1.76.32,2.88.32Z"/>
        <path class="cls-2" d="m363.64,62.19V14.31h19.8c1.9,0,3.67.23,5.31.68,1.64.45,3.08,1.24,4.34,2.36,1.25,1.12,2.23,2.68,2.94,4.66s1.07,4.53,1.07,7.64c0,2.2-.22,4.08-.65,5.63-.43,1.55-1,2.83-1.71,3.82-.71.99-1.52,1.79-2.43,2.39-.91.6-1.83,1.1-2.78,1.49l8.93,19.22h-9.77l-7.7-17.73c-.52,0-1.11-.01-1.78-.03-.67-.02-1.35-.03-2.04-.03h-2.07c-.69,0-1.32-.02-1.88-.06v17.86h-9.58Zm9.58-25.43h8.54c.86,0,1.64-.11,2.33-.32.69-.21,1.29-.59,1.81-1.13.52-.54.92-1.26,1.2-2.17.28-.91.42-2.07.42-3.5,0-1.34-.14-2.45-.42-3.33-.28-.88-.68-1.57-1.2-2.07s-1.12-.84-1.81-1.04c-.69-.19-1.47-.29-2.33-.29h-8.54v13.85Z"/>
        <path class="cls-2" d="m418,62.52c-2.85,0-5.29-.29-7.31-.87-2.03-.58-3.68-1.56-4.95-2.94s-2.2-3.21-2.78-5.5c-.58-2.29-.87-5.11-.87-8.48,0-3.54.29-6.46.87-8.77.58-2.31,1.51-4.12,2.78-5.44,1.27-1.32,2.93-2.24,4.98-2.78,2.05-.54,4.48-.81,7.28-.81s5.35.28,7.38.84c2.03.56,3.68,1.5,4.95,2.82,1.27,1.32,2.2,3.13,2.78,5.44.58,2.31.87,5.21.87,8.7s-.28,6.33-.84,8.64c-.56,2.31-1.47,4.13-2.72,5.47-1.25,1.34-2.9,2.29-4.95,2.85-2.05.56-4.54.84-7.47.84Zm0-7.64c1.17,0,2.15-.11,2.94-.32.8-.21,1.45-.66,1.94-1.33s.87-1.69,1.13-3.07c.26-1.38.39-3.19.39-5.44s-.13-4.11-.39-5.47-.64-2.37-1.13-3.04c-.5-.67-1.14-1.11-1.94-1.33-.8-.22-1.78-.32-2.94-.32s-2.08.11-2.88.32c-.8.22-1.46.66-1.97,1.33-.52.67-.9,1.68-1.13,3.04-.24,1.36-.36,3.18-.36,5.47s.12,4.06.36,5.44c.24,1.38.62,2.41,1.13,3.07s1.17,1.11,1.97,1.33c.8.22,1.76.32,2.88.32Z"/>
        <path class="cls-2" d="m441.42,22.33c-.91,0-1.36-.43-1.36-1.29v-6.34c0-.91.45-1.36,1.36-1.36h7.38c.43,0,.74.13.94.39s.29.58.29.97v6.34c0,.86-.41,1.29-1.23,1.29h-7.38Zm-1.1,55.2V27.44h9.58v34.49c0,2.72-.21,5.49-.62,8.32-.41,2.83-.98,5.25-1.71,7.28h-7.25Z"/>
        <path class="cls-2" d="m464.66,62.58c-2.63,0-4.77-.78-6.41-2.33s-2.46-3.71-2.46-6.47v-3.11c0-2.63.93-4.8,2.78-6.5,1.85-1.7,4.75-2.56,8.67-2.56h8.87v-2.39c0-1.08-.19-1.97-.58-2.69-.39-.71-1.11-1.23-2.17-1.55-1.06-.32-2.67-.49-4.82-.49h-10.42v-5.57c1.68-.52,3.63-.97,5.86-1.36,2.22-.39,4.91-.58,8.06-.58,2.89,0,5.36.35,7.41,1.04,2.05.69,3.6,1.88,4.66,3.56,1.06,1.68,1.59,4.01,1.59,6.99v23.62h-7.57l-1.55-3.69c-.3.35-.82.73-1.55,1.17-.73.43-1.63.87-2.69,1.33-1.06.45-2.24.83-3.56,1.13-1.32.3-2.69.45-4.11.45Zm4.85-6.67c.43,0,.92-.05,1.46-.16.54-.11,1.1-.24,1.68-.39s1.12-.3,1.62-.45c.5-.15.91-.29,1.23-.42.32-.13.53-.21.61-.26v-8.09l-5.82.39c-1.68.13-2.92.56-3.72,1.29-.8.73-1.2,1.73-1.2,2.98v1.42c0,.86.18,1.58.55,2.14.37.56.86.96,1.49,1.2.62.24,1.33.36,2.1.36Z"/>
        <path class="cls-2" d="m505.49,62.58c-1.08,0-2.24-.03-3.5-.1-1.25-.06-2.5-.16-3.75-.29-1.25-.13-2.42-.29-3.5-.49-1.08-.19-1.99-.42-2.72-.68v-5.63h15.4c.91,0,1.65-.08,2.23-.23.58-.15,1.01-.43,1.29-.84.28-.41.42-1,.42-1.78v-1.1c0-.86-.28-1.53-.84-2.01-.56-.47-1.6-.71-3.11-.71h-5.44c-1.98,0-3.78-.3-5.37-.91-1.6-.6-2.86-1.6-3.79-2.98-.93-1.38-1.39-3.24-1.39-5.57v-2.01c0-2.2.43-4.05,1.29-5.57.86-1.51,2.31-2.65,4.34-3.43,2.03-.78,4.81-1.17,8.35-1.17,1.42,0,2.94.08,4.56.23s3.15.35,4.59.58c1.45.24,2.6.51,3.46.81v5.63h-14.56c-1.25,0-2.2.21-2.85.61-.65.41-.97,1.18-.97,2.3v1.04c0,.78.15,1.35.45,1.71.3.37.77.63,1.39.78.62.15,1.41.23,2.36.23h5.57c3.54,0,6.12.81,7.73,2.43,1.62,1.62,2.43,3.85,2.43,6.7v3.11c0,2.33-.55,4.17-1.65,5.53-1.1,1.36-2.7,2.33-4.79,2.91s-4.65.87-7.67.87Z"/>
      </g>
    </g>
  </g>
</svg>