<?xml version="1.0" encoding="UTF-8"?>
<svg id="Camada_2" data-name="Camada 2" xmlns="http://www.w3.org/2000/svg" viewBox="0 0 234.18 236.24">
  <defs>
    <style>
      .cls-1 {
        fill: #0ca88e;
      }
    </style>
  </defs>
  <g id="Camada_1-2" data-name="Camada 1">
    <g>
      <path class="cls-1" d="m234.18,118.11c0,65.25-52.43,118.13-117.08,118.13-50.32,0-93.21-32.01-109.78-76.94-2.4-6.5,2.43-13.42,9.36-13.42h0c4.11,0,7.81,2.52,9.25,6.37,13.82,36.91,49.41,63.18,91.16,63.18,44.09,0,81.34-29.33,93.29-69.55,1.76-5.92,2.97-12.06,3.57-18.39.29-3.1.43-6.21.43-9.38s-.13-6.05-.4-9c-4.57-49.53-46.21-88.3-96.9-88.3S24.75,59.58,20.2,109.11h150.49c.51,2.93.76,5.94.76,9s-.27,6.34-.83,9.38H.36c-.09-1.27-.18-2.55-.24-3.82-.09-1.85-.13-3.7-.13-5.56,0-.92.02-1.85.04-2.77.05-2.08.15-4.17.31-6.23C4.91,48.08,55.43,0,117.1,0s117.08,52.88,117.08,118.11Z"/>
      <path class="cls-1" d="m171.45,118.11c0,3.21-.27,6.34-.83,9.38-4.42,25.54-26.72,44.96-53.51,44.96s-49.09-19.42-53.51-44.96c-.56-3.04-.83-6.18-.83-9.38s.25-6.07.76-9c4.28-25.72,26.63-45.34,53.59-45.34s49.31,19.62,53.59,45.34c.51,2.93.76,5.94.76,9Z"/>
    </g>
  </g>
</svg>